0.06m3min_grf.mot
version=1
nRows=27
nColumns 19
inDegrees=yes
endheader
time	1_ground_force_vx	1_ground_force_vy	1_ground_force_vz	1_ground_force_px	1_ground_force_py	1_ground_force_pz	1_ground_torque_x	1_ground_torque_y	1_ground_torque_z	2_ground_force_vx	2_ground_force_vy	2_ground_force_vz	2_ground_force_px	2_ground_force_py	2_ground_force_pz	2_ground_torque_x	2_ground_torque_y	2_ground_torque_z
            2.502500	          -12.202588	          651.142065	          -45.006857	           -0.248495	            0.006102	           -0.377737	            0.001299	           -0.069332	            0.004792	            0.076048	          699.034399	           54.677808	           -0.256010	            0.005459	           -0.669655	            0.000213	            1.956832	            0.153062
            2.503000	          -11.793055	          657.274581	          -45.761147	           -0.248382	            0.006103	           -0.378015	            0.000778	           -0.043352	            0.003018	           -0.278801	          706.580443	           55.502665	           -0.256028	            0.005459	           -0.669681	           -0.000789	            2.000176	            0.157116
            2.503500	          -11.521510	          664.669293	          -46.601404	           -0.248396	            0.006102	           -0.377811	           -0.003480	            0.200768	           -0.014076	           -0.541095	          714.493600	           56.751149	           -0.255986	            0.005460	           -0.669686	           -0.001380	            1.822862	            0.144787
            2.504000	          -11.158359	          671.883923	          -47.488514	           -0.248461	            0.006102	           -0.377752	           -0.003609	            0.217302	           -0.015359	           -0.991514	          722.590785	           57.859585	           -0.256100	            0.005460	           -0.669940	           -0.002345	            1.709219	            0.136861
            2.504500	          -10.794915	          678.737567	          -48.285459	           -0.248762	            0.006103	           -0.377891	           -0.002681	            0.168539	           -0.011990	           -1.156702	          729.582847	           59.292456	           -0.256096	            0.005459	           -0.669760	           -0.002558	            1.613529	            0.131130
            2.505000	          -10.431081	          685.951017	          -48.897433	           -0.248722	            0.006102	           -0.377677	           -0.001432	            0.094185	           -0.006714	           -1.042909	          737.129412	           60.445610	           -0.256304	            0.005459	           -0.669884	           -0.002490	            1.759741	            0.144301
            2.505500	          -10.160006	          692.805946	          -49.969285	           -0.248707	            0.006102	           -0.377721	            0.001147	           -0.078247	            0.005644	           -1.215031	          745.965346	           61.228058	           -0.256304	            0.005461	           -0.670288	           -0.003368	            2.067670	            0.169712
            2.506000	           -9.932934	          698.936731	          -50.356273	           -0.248832	            0.006102	           -0.377851	            0.001597	           -0.112379	            0.008097	           -1.237902	          752.407395	           62.142689	           -0.256435	            0.005459	           -0.670064	           -0.003555	            2.160971	            0.178478
            2.506500	           -9.981184	          706.509711	          -50.736401	           -0.248929	            0.006101	           -0.377570	            0.000941	           -0.066631	            0.004785	           -1.030697	          759.956641	           62.638810	           -0.256466	            0.005460	           -0.670181	           -0.002913	            2.147478	            0.177004
            2.507000	           -9.251059	          712.462461	          -51.629833	           -0.249160	            0.006102	           -0.377763	           -0.001349	            0.103901	           -0.007529	           -0.822018	          767.136434	           63.462114	           -0.256493	            0.005459	           -0.670144	           -0.002126	            1.984181	            0.164143
            2.507500	           -9.117969	          719.318149	          -52.884767	           -0.249045	            0.006101	           -0.377637	           -0.002190	            0.172806	           -0.012705	           -0.425878	          774.316401	           64.426122	           -0.256734	            0.005459	           -0.670374	           -0.000971	            1.764808	            0.146839
            2.508000	           -9.075327	          725.630965	          -53.683233	           -0.249298	            0.006102	           -0.377757	           -0.001751	            0.139982	           -0.010356	           -0.354843	          780.757115	           65.809994	           -0.256544	            0.005460	           -0.670350	           -0.000846	            1.860383	            0.156812
            2.508500	           -8.666315	          732.124737	          -54.619401	           -0.249327	            0.006102	           -0.377876	           -0.000147	            0.012439	           -0.000928	            0.088873	          787.752548	           66.914109	           -0.256867	            0.005459	           -0.670487	            0.000222	            1.964188	            0.166844
            2.509000	           -8.806949	          739.158187	          -55.322609	           -0.249356	            0.006102	           -0.377737	            0.002192	           -0.183997	            0.013771	            0.441404	          794.012251	           67.687139	           -0.256824	            0.005459	           -0.670304	            0.001264	            2.274196	            0.193868
            2.509500	           -8.855927	          745.110515	          -56.122394	           -0.249409	            0.006102	           -0.377762	            0.002391	           -0.201190	            0.015154	            0.835427	          801.745706	           68.371550	           -0.256803	            0.005460	           -0.670636	            0.002422	            2.324060	            0.198192
            2.510000	           -8.400144	          750.881858	          -56.740779	           -0.249639	            0.006102	           -0.377908	           -0.000083	            0.007421	           -0.000561	            1.095485	          807.637626	           68.908673	           -0.256997	            0.005459	           -0.670476	            0.003145	            2.318299	            0.197800
            2.510500	           -8.311270	          757.554488	          -57.354390	           -0.249552	            0.006101	           -0.377632	           -0.001301	            0.118626	           -0.008981	            1.917097	          813.715488	           69.493135	           -0.257161	            0.005459	           -0.670608	            0.004947	            2.099817	            0.179329
            2.511000	           -8.039542	          763.326975	          -58.247456	           -0.249656	            0.006102	           -0.377814	           -0.001716	            0.162953	           -0.012434	            2.360752	          820.711545	           70.456466	           -0.257260	            0.005458	           -0.670556	            0.005706	            1.983688	            0.170296
            2.511500	           -8.272610	          770.722179	          -59.224026	           -0.249719	            0.006101	           -0.377689	           -0.000585	            0.054460	           -0.004185	            2.759366	          827.156334	           70.995485	           -0.257292	            0.005459	           -0.670781	            0.006594	            1.976725	            0.169664
            2.512000	           -8.275743	          775.412958	          -60.121047	           -0.249803	            0.006101	           -0.377626	            0.000775	           -0.072622	            0.005631	            3.065253	          833.414194	           72.237816	           -0.257268	            0.005459	           -0.670874	            0.008256	            2.244628	            0.194558
            2.512500	           -8.095198	          781.545036	          -60.783064	           -0.249796	            0.006101	           -0.377517	            0.001930	           -0.186343	            0.014492	            3.232460	          839.120190	           73.196667	           -0.257481	            0.005458	           -0.670815	            0.009508	            2.468288	            0.215309
            2.513000	           -7.823583	          787.317720	          -61.721982	           -0.249773	            0.006101	           -0.377674	            0.001111	           -0.111779	            0.008763	            3.588958	          844.275216	           73.918835	           -0.257603	            0.005457	           -0.670562	            0.010797	            2.539856	            0.222372
            2.513500	           -7.962669	          792.726585	          -61.927728	           -0.249800	            0.006101	           -0.377632	            0.000119	           -0.011828	            0.000924	            3.894557	          850.535420	           74.504173	           -0.257520	            0.005458	           -0.670768	            0.011310	            2.469992	            0.216363
            2.514000	           -7.735238	          798.136037	          -62.226103	           -0.249993	            0.006101	           -0.377595	           -0.001052	            0.108535	           -0.008462	            4.294000	          856.794790	           75.417960	           -0.257709	            0.005457	           -0.670776	            0.011190	            2.232869	            0.196545
            2.514500	           -7.370638	          804.266849	          -62.613432	           -0.250008	            0.006101	           -0.377500	           -0.001231	            0.134285	           -0.010454	            4.552043	          863.239361	           75.910118	           -0.257617	            0.005458	           -0.670991	            0.011165	            2.117377	            0.186194
            2.515000	           -7.418115	          808.234319	          -62.963160	           -0.250057	            0.006101	           -0.377684	           -0.000152	            0.016524	           -0.001287	            4.394460	          868.024625	           76.490399	           -0.257659	            0.005458	           -0.670936	            0.011128	            2.198045	            0.193692
            2.515500	           -7.100038	          813.104866	          -63.722649	           -0.250256	            0.006101	           -0.377635	            0.001136	           -0.130051	            0.010192	            4.374227	          873.730279	           77.355474	           -0.257767	            0.005457	           -0.670858	            0.011752	            2.347503	            0.207836
